<?xml version="1.0"?>
<svg width="176" height="54" xmlns="http://www.w3.org/2000/svg" xmlns:svg="http://www.w3.org/2000/svg" version="1.1">
 <g class="layer">
  <title>Layer 1</title>
  <path d="m162.88,24.08c0.48,0 1.66,0 2.15,0c1.48,0 1.71,0.73 2.6,1.55c2.14,1.97 5.99,5.73 7.96,7.71c0.36,0.31 0.12,1.2 -0.63,1.08l-12.11,-0.01c-0.26,0 -0.46,0.22 -0.46,0.47l0,0.02c0,0.25 0.26,0.43 0.51,0.48c0.91,0.22 1.52,0.65 1.52,1.15c0,0.73 -1.3,1.32 -2.91,1.32c-1.61,0 -2.91,-0.59 -2.91,-1.32c0,-0.49 0.62,-0.93 1.53,-1.15c0.25,-0.05 0.5,-0.23 0.5,-0.48l0.01,-0.02c0,-0.25 -0.21,-0.47 -0.46,-0.47l-4.68,-0.22c-0.25,0 -0.46,0.21 -0.46,0.47l0.01,0.07c0,0.25 0.25,0.43 0.5,0.48c0.91,0.22 1.53,0.65 1.53,1.15c0,0.73 -1.31,1.32 -2.92,1.32c-1.6,0 -2.91,-0.59 -2.91,-1.32c0,-0.5 0.63,-0.93 1.53,-1.15c0.26,-0.05 0.51,-0.23 0.51,-0.48l0,-0.26c0,-0.25 -0.26,-0.44 -0.51,-0.44c-1.06,0 -3.17,-0.01 -3.91,-0.02c-0.26,0 -0.46,0.22 -0.46,0.47l0,0.58c0,0.25 0.26,0.43 0.51,0.48c0.91,0.22 1.52,0.65 1.52,1.15c0,0.73 -1.3,1.32 -2.91,1.32c-1.61,0 -2.91,-0.59 -2.91,-1.32c0,-0.5 0.62,-0.93 1.52,-1.15c0.26,-0.05 0.51,-0.23 0.51,-0.48c0,0 -0.02,-0.44 -0.44,-0.44c-0.43,0.08 -0.52,0.71 -1,0.95c-0.57,0.27 -0.84,-0.08 -0.84,-0.08c-0.37,-0.62 -0.78,-1.23 -1.46,-1.57c-1.09,-0.56 -3.41,-1.33 -3.32,-2.18c0.14,-1.28 1.14,-1.14 3.51,-2.09c1.24,-0.49 1.75,-0.46 1.65,-1.13c-0.11,-0.78 -3.27,-1.52 -5.13,-2.92c-0.35,-0.3 -0.41,-0.65 0.22,-1.13c2.53,-1.38 4.07,-2.47 4.61,-2.36c0.48,0.1 1.17,0.83 1.75,0.98c0.42,0 0.45,-0.46 0.45,-0.46c0,-0.25 -0.25,-0.43 -0.51,-0.48c-0.9,-0.22 -1.52,-0.65 -1.52,-1.15c0,-0.73 1.3,-1.32 2.91,-1.32c1.61,0 2.91,0.59 2.91,1.32c0,0.5 -0.61,0.93 -1.52,1.15c-0.25,0.05 -0.51,0.23 -0.51,0.48l0,0.76c0,0.26 0.23,0.47 0.49,0.47l3.94,0c0.25,0 0.45,-0.21 0.45,-0.46l0,-0.43c0,-0.26 -0.25,-0.44 -0.51,-0.49c-0.9,-0.22 -1.53,-0.65 -1.53,-1.15c0,-0.73 1.31,-1.32 2.91,-1.32c1.61,0 2.92,0.59 2.92,1.32c0,0.5 -0.62,0.93 -1.53,1.15c-0.25,0.05 -0.5,0.23 -0.5,0.49l-0.01,0.65c0,0.25 0.26,0.46 0.51,0.46l4.63,0c0.25,0 0.46,-0.21 0.46,-0.46l-0.01,-0.65c0,-0.26 -0.25,-0.44 -0.5,-0.49c-0.91,-0.22 -1.53,-0.65 -1.53,-1.15c0,-0.73 1.3,-1.32 2.91,-1.32c1.61,0 2.91,0.59 2.91,1.32c0,0.5 -0.61,0.93 -1.52,1.15c-0.25,0.05 -0.51,0.23 -0.51,0.49l0,0.65c0,0.25 0.23,0.46 0.49,0.46" fill="rgb(13.729858%,12.159729%,12.548828%)" fill-rule="evenodd" id="svg_2"/>
  <path d="m27.88,2.24c0.28,0.56 0.46,1.08 0.6,1.59c0.81,2.6 1.43,5.41 1.75,8.19c0.19,1.56 0.63,5.87 0.63,5.87c0.01,0.28 -0.38,0.8 -0.81,-0.08c-1.35,-2.31 -5.48,-6.12 -9.93,-5.73c-6.2,0.54 -8.25,9.83 -8.48,13.52c-0.01,0.19 -0.18,4.31 0.51,7.22c0.74,3.17 2.39,7.38 6.38,8.7c4.52,1.49 9.23,-2.5 11.25,-4.72c0,0 0.45,-0.4 0.71,0c0.08,0.12 0,0.83 0,0.83c0.01,0.49 -1.13,7.73 -2.59,12.81c-0.11,0.39 -0.51,0.85 -0.6,1.2c-1.6,1.12 -5.64,3.02 -13.82,1.33c-7.46,-1.54 -11.48,-9.12 -12.61,-14.91c-1.42,-7.31 -0.69,-17.18 -0.58,-17.36c0.36,-8.45 5.6,-18.93 15.52,-20.56c4.71,-0.77 11.53,1.83 12.07,2.1" fill="rgb(14.465332%,12.786865%,13.037109%)" fill-rule="evenodd" id="svg_3"/>
  <path d="m66.17,33.08l-7.54,0c-1.34,0 -1.72,1.98 -2.63,1.73l0,-15.49c0.2,-0.22 0.79,0.11 1.3,0.71c0.89,1.33 2.28,2.44 3.5,2.53l9.28,0.02c2.26,-0.02 4.18,1.83 4.18,3.43l0.01,6.18c0,0.26 -0.23,0.51 -0.48,0.51l-2.72,0c-0.26,0 -0.47,-0.21 -0.47,-0.46l0,-1.42c0,-0.25 -0.26,-0.46 -0.51,-0.46l-2.93,0c-0.25,0 -0.46,0.21 -0.46,0.46l-0.02,1.8c0,0.25 -0.25,0.46 -0.51,0.46" fill="rgb(13.729858%,12.159729%,12.548828%)" fill-rule="evenodd" id="svg_4"/>
  <path d="m68.51,25.31c0.48,0 1.74,0.29 1.73,1.62l0,0.88l-3.55,0l0,-0.88c-0.01,-1.33 1.33,-1.62 1.82,-1.62" fill="rgb(100%,100%,100%)" fill-rule="evenodd" id="svg_5"/>
  <path d="m132.98,29.84c0,0.25 0.22,0.47 0.48,0.47l5.07,0c0.26,0 0.47,0.2 0.47,0.46l0,1.42c0,0.26 -0.23,0.51 -0.48,0.51l-13.16,0c-0.26,0 -0.47,-0.28 -0.47,-0.54l0,-7.18c0,-0.26 0.24,-0.51 0.49,-0.51l7.13,0c0.25,0 0.46,0.2 0.46,0.46l0,4.83l0.01,0.08" fill="rgb(13.729858%,12.159729%,12.548828%)" fill-rule="evenodd" id="svg_6"/>
  <path d="m111.18,24.11l12.12,-0.02c0.26,0 0.51,0.23 0.51,0.49l0,1.13c0,0.25 -0.1,0.46 -0.48,0.51l-5.2,-0.01l-0.74,0.99l1.62,0c0.25,0 0.56,0.23 0.56,0.48l0,1.45c0,0.25 -0.21,0.47 -0.46,0.47l-2.93,0.01l-0.81,1.13l7.61,0c0.25,0 0.5,0.23 0.5,0.48l0.01,0.97c0,0.26 -0.23,0.51 -0.49,0.51l-16.98,0c-0.25,0 -0.63,-0.18 -0.47,-0.73l4.71,-7.32c0.1,-0.32 0.55,-0.54 0.92,-0.54" fill="rgb(13.729858%,12.159729%,12.548828%)" fill-rule="evenodd" id="svg_7"/>
  <path d="m96.11,32.41l-4.51,-7.94c-0.05,-0.07 -0.11,-0.16 -0.11,-0.26c0,-0.25 0.2,-0.46 0.46,-0.46l7.44,0c0.17,0 0.31,0.11 0.39,0.24l2.95,4.43l2.75,-4.26c0.08,-0.13 0.22,-0.22 0.38,-0.22l2.91,0c0.25,0 0.46,0.21 0.46,0.46c0,0.1 -0.05,0.19 -0.1,0.26l-4.93,7.77c-0.09,0.15 -0.26,0.27 -0.43,0.27l-7.23,0c-0.19,0 -0.36,-0.11 -0.43,-0.29" fill="rgb(13.729858%,12.159729%,12.548828%)" fill-rule="evenodd" id="svg_8"/>
  <path d="m153.89,32.06c0,-0.32 0.26,-0.58 0.58,-0.58c0.32,0 0.58,0.26 0.58,0.58c0,0.32 -0.26,0.59 -0.58,0.59c-0.32,0 -0.58,-0.27 -0.58,-0.59" fill="rgb(100%,100%,100%)" fill-rule="nonzero" id="svg_9"/>
  <path d="m160.98,32.06c0,-0.32 0.26,-0.58 0.58,-0.58c0.32,0 0.58,0.26 0.58,0.58c0,0.32 -0.26,0.59 -0.58,0.59c-0.32,0 -0.58,-0.27 -0.58,-0.59" fill="rgb(100%,100%,100%)" fill-rule="nonzero" id="svg_10"/>
  <path d="m147.25,32.06c0,-0.32 0.27,-0.58 0.59,-0.58c0.32,0 0.58,0.26 0.58,0.58c0,0.32 -0.26,0.59 -0.58,0.59c-0.32,0 -0.59,-0.27 -0.59,-0.59" fill="rgb(100%,100%,100%)" fill-rule="nonzero" id="svg_11"/>
  <path d="m153.89,26.18c0,-0.32 0.26,-0.58 0.58,-0.58c0.32,0 0.58,0.26 0.58,0.58c0,0.33 -0.26,0.59 -0.58,0.59c-0.32,0 -0.58,-0.26 -0.58,-0.59" fill="rgb(100%,100%,100%)" fill-rule="nonzero" id="svg_12"/>
  <path d="m160.98,26.18c0,-0.32 0.26,-0.58 0.58,-0.58c0.32,0 0.58,0.26 0.58,0.58c0,0.33 -0.26,0.59 -0.58,0.59c-0.32,0 -0.58,-0.26 -0.58,-0.59" fill="rgb(100%,100%,100%)" fill-rule="nonzero" id="svg_13"/>
  <path d="m147.25,26.18c0,-0.32 0.27,-0.58 0.59,-0.58c0.32,0 0.58,0.26 0.58,0.58c0,0.33 -0.26,0.59 -0.58,0.59c-0.32,0 -0.59,-0.26 -0.59,-0.59" fill="rgb(100%,100%,100%)" fill-rule="nonzero" id="svg_14"/>
  <path d="m83,32.19c0,0.26 -0.23,0.51 -0.48,0.51l-6.61,0c-0.26,0 -0.47,-0.21 -0.47,-0.46l0.01,-7.45c-0.05,-0.45 -0.42,-0.75 -1.05,-0.98c-0.05,0 -0.11,-0.03 -0.15,-0.07c-0.14,-0.11 -0.17,-0.31 -0.06,-0.45c0.07,-0.09 0.17,-0.13 0.27,-0.13l13.68,0.01c1.1,-0.01 2.83,1.43 2.85,2.91c0.01,0.49 0.16,1.52 -1.12,2.67c-0.13,0.12 -0.14,0.3 0.09,0.44c0.72,0.67 2.45,1.83 3.57,2.74c0.11,0.15 0.12,0.3 0.12,0.3c0,0.26 -0.2,0.47 -0.46,0.47l-4.76,0c-0.49,0.01 -2.07,-1.58 -3.21,-2.36l-2.21,0l-0.01,1.85" fill="rgb(13.729858%,12.159729%,12.548828%)" fill-rule="evenodd" id="svg_15"/>
  <path d="m85.67,26.58l0,1.41l-2.67,0l0.01,-1.41c0,-0.6 0.59,-1.09 1.32,-1.09c0.74,0 1.34,0.49 1.34,1.09" fill="rgb(100%,100%,100%)" fill-rule="evenodd" id="svg_16"/>
  <path d="m45.29,12.14c-0.36,0.17 -1.06,0.44 -0.81,1.03c0.82,0.76 1.16,1.73 1.22,2.9l0,5.27c-0.27,1.65 -1.13,1.5 -1.94,1.49c-0.14,0 -0.47,0 -0.81,0c-0.81,0.01 -1.67,0.16 -1.93,-1.49l0,-5.84c0.06,-1.17 0.42,-2.14 1.25,-2.9c0.24,-0.58 -0.17,-0.73 -0.91,-0.94c-0.93,-0.42 -1.89,-0.93 -2.52,-1.57c-2.6,-2.6 -5.65,-5.26 -8.28,-6.42c0.82,4.01 1.78,7.97 2.29,13.15c0.7,7.04 0.69,11.1 -0.01,18.14c-0.48,4.72 -0.98,7.38 -2.02,12.01c-0.32,1.43 -0.51,2.19 -0.88,3.65c0,0 0.54,-0.14 0.88,-0.25c1.46,-0.46 2.59,-1.24 3.99,-2.38c2.44,-1.97 4.15,-4.54 6.46,-5.65c0.36,-0.17 0.94,-0.44 0.7,-1.03c-0.83,-0.76 -1.49,-1.73 -1.55,-2.9l0,-4.42c0.27,-1.65 1.13,-1.5 1.94,-1.49c0.14,0 1.09,0 1.44,0c0.81,-0.01 1.66,-0.16 1.93,1.49l0,4.42c-0.07,1.17 -0.72,2.14 -1.55,2.9c-0.25,0.59 0.16,0.72 0.9,0.93c1.33,0.33 1.71,0.61 2.8,1c2.51,0.89 4.38,2.29 6.45,2.29c1.94,0 4.26,-1.6 4.34,-4.07c0.05,-1.52 -0.31,-2.18 -1.03,-2.85c-0.22,-0.14 -2.82,-1.08 -2.82,-2.14l0,-19.45c0,0 0.24,-2.47 2.68,-3.47c1.3,-0.54 2.98,-0.4 3.58,-0.4c0.6,0 2.04,-0.54 2.04,-2.31c0,-1.34 -1.55,-2.44 -3.1,-2.78c-1.87,-0.41 -3.31,-0.38 -5.06,0c-2.01,0.44 -2.89,0.85 -4.8,1.78c-1.92,0.93 -2.29,1.53 -4.87,2.3" fill="rgb(14.465332%,12.786865%,13.037109%)" fill-rule="evenodd" id="svg_17"/>
  <path d="m171.04,21.04c0.35,0 0.6,0.03 0.76,0.1c0.29,0.12 0.43,0.35 0.43,0.7c0,0.25 -0.09,0.43 -0.27,0.55c-0.1,0.06 -0.23,0.11 -0.41,0.13c0.22,0.04 0.38,0.13 0.49,0.27c0.1,0.15 0.14,0.3 0.15,0.44l0,0.2c0,0.06 0,0.13 0,0.21c0.01,0.07 0.01,0.12 0.02,0.14l0.02,0.03l-0.46,0c0,0 0,-0.01 0,-0.02c0,-0.01 0,-0.02 -0.01,-0.04l-0.01,-0.08l0,-0.22c0,-0.32 -0.09,-0.54 -0.26,-0.64c-0.1,-0.06 -0.29,-0.09 -0.54,-0.09l-0.39,0l0,1.09l-0.49,0l0,-2.77l0.97,0zm0.53,0.44c-0.12,-0.07 -0.32,-0.11 -0.59,-0.11l-0.42,0l0,1.01l0.44,0c0.21,0 0.36,-0.02 0.46,-0.06c0.2,-0.08 0.29,-0.23 0.29,-0.44c0,-0.2 -0.06,-0.34 -0.18,-0.4zm1.31,2.75c-0.49,0.49 -1.09,0.74 -1.79,0.74c-0.7,0 -1.3,-0.25 -1.79,-0.74c-0.49,-0.49 -0.73,-1.09 -0.73,-1.8c0,-0.69 0.25,-1.29 0.74,-1.78c0.49,-0.49 1.08,-0.74 1.78,-0.74c0.7,0 1.3,0.25 1.79,0.74c0.5,0.49 0.74,1.09 0.74,1.78c0,0.7 -0.24,1.3 -0.74,1.8zm-3.33,-3.33c-0.42,0.42 -0.63,0.93 -0.63,1.53c0,0.61 0.21,1.13 0.63,1.56c0.42,0.42 0.93,0.64 1.54,0.64c0.61,0 1.12,-0.22 1.54,-0.64c0.42,-0.43 0.64,-0.95 0.64,-1.56c0,-0.6 -0.22,-1.11 -0.64,-1.53c-0.43,-0.43 -0.94,-0.65 -1.54,-0.65c-0.6,0 -1.11,0.22 -1.54,0.65" fill="rgb(13.729858%,12.159729%,12.548828%)" fill-rule="evenodd" id="svg_18"/>
 </g>
</svg>