<?xml version="1.0" encoding="utf-8"?>
<!-- Generator: Adobe Illustrator 16.0.0, SVG Export Plug-In . SVG Version: 6.00 Build 0)  -->
<!DOCTYPE svg PUBLIC "-//W3C//DTD SVG 1.1//EN" "http://www.w3.org/Graphics/SVG/1.1/DTD/svg11.dtd">
<svg version="1.1" id="Layer_1" xmlns="http://www.w3.org/2000/svg" xmlns:xlink="http://www.w3.org/1999/xlink" x="0px" y="0px"
	 width="300px" height="86.668px" viewBox="0 0 300 86.668" enable-background="new 0 0 300 86.668" xml:space="preserve">
<g>
	<path d="M108.623,53.398c-1.171,4.365-2.171,5.867-0.982,9.26c0.638,1.82,2.244,2.746,3.438,3.367
		c1.193,0.623,0.997-0.133,1.612-1.969c0.572-1.703,2.548-4.67,2.828-5.654c0.279-0.982,0.841-5.352-1.354-8.16
		c-2.161-2.775-6.222-3.775-9.626-3.492c-3.756,0.313-7.438,2.803-10.802,6.508c-3.672,4.043-7.167,13.582-6.171,17.99
		c0.167,0.74-2.928,2.963-3.467,3.182c-0.539,0.217-2.407,0.553-2.115-1.924c0.291-2.475,0.899-3.795,2.336-7.26
		c1.198-2.889,4.634-9.764,5.23-10.98c0.596-1.217,1.917-3.539,2.287-4.252c0.581-1.117-0.236-1.854-1.019-2.48
		c-0.782-0.629-4.996-0.928-5.846-0.658c-0.849,0.268-2.02-0.082-3.507,2.539c-0.84,1.48-1.804,2.377-1.804,2.377l-2.703-1.506
		l-2.447,1.059c4.503,6.082-0.287,14.371-1.711,16.281c-1.683,2.26-4.577,4.551-6.145,5.375c-1.567,0.824-2.939,1.146-2.939,1.146
		s-0.615-4.385,3.269-12.361c2.052-4.215,4.787-8.289,6.536-9.561c0,0,1.989-2.168,6.703,0.307c0,0-2.417-5.014-8.796-5.154
		c-3.896-0.084-6.31,0.521-9.68,2.479c-3.067,1.779-5.827,5.166-7.961,9.504c-2.41,4.902-3.208,9.123-2.574,13.77
		c0.776,5.68,4.95,6.629,6.083,7.111c1.133,0.482,4.359,0.342,7.748-1.314c3.39-1.656,4.785-2.775,5.354-3.189
		s0.75,0.268,1.127,1.115c1.024,2.303,3.767,3.596,5.99,4.049c2.222,0.453,6.479,0.322,8.797-1.102
		c2.468-1.516,3.854-3.324,3.854-3.324s3.663,4.654,10.333,4.092c5.477-0.459,7.454-2.479,8.916-3.432s4.71-3.703,5.255-3.977
		c0.792-0.396-1.583,4.145-1.605,4.725c-0.024,0.596,0.568,1.965,4.852,2.139c4.284,0.176,4.693-0.324,5.232-0.541
		s1.499-2.461,2.08-3.578c0.581-1.119,4.057-9.25,4.057-9.25s1.767,4.322,4.402,7.262c2.635,2.938,3.693,4.338,6.959,5.406
		c3.753,1.229,5.842,1.186,11.049-1.26c3.297-1.545,5.249-3.262,5.249-3.262s5.3-6.615,8.328-11.037
		c2.628-3.838,3.84-6.902,3.84-6.902s0.612-0.855,0.76-1.787c0.147-0.928-3.985-6.475-3.985-6.475s-8.261,11.232-9.215,12.795
		c-0.953,1.564-5.469,6.977-6.868,8.166s-3.225,3.611-5.169,3.756c-1.534,0.115-3.039-0.295-4.726-2.377
		c-1.688-2.082-2.729-3.424-3.157-6.104c-0.281-1.754,1.04-3.633,1.04-3.633s18.236-11.66,18.919-12.156
		c0.684-0.498,3.823-2.311,2.378-3.557c-1.173-1.012-3.548-2.479-5.15-3.105c-1.304-0.508-2.455-0.77-4.77,0.773
		c-0.764,0.508-7.531,4.586-7.531,4.586l-4,2.492c0,0,15.109-31.633,16.021-33.176c0.675-1.744,1.548-1.666,1.684-2.527
		c0.137-0.859-4.088-2.029-6.104-2.045c-2.014-0.016-4.735,0.133-6.482,2.883c-1.747,2.748-4.536,8.256-4.9,9.283
		c-0.364,1.025-7.826,16.459-8.704,18.816c-0.877,2.357-7.597,14.898-8.982,16.756c-3.629,4.865-6.389,7.229-10.234,9.793
		c-3.994,2.664-7.83,3.971-9.089,3.166c-1.259-0.805-3.464-1.693-1.305-7.678c2.158-5.986,5.283-9.898,6.021-10.797
		C106.588,53.469,109.102,50.373,108.623,53.398"/>
	<path d="M72.555,4.143c0.104-0.357-0.143-0.535-0.418-0.584C69.35,3.344,59.606,2.871,56.924,5.541
		c-3.165,3.15-5.112,7.313-6.704,13.289c-1.591,5.977-10.419,32.545-12.955,39.195c-3.307,8.676-7.677,15.373-9.443,17.027
		c-1.765,1.652-7.193,6.895-11.765,0.5c-4.132-5.779-2.375-11.697-0.587-17.295c1.713-5.361,8.397-11.676,6.617-5.855
		c-1.782,5.818-2.955,6.656-1.515,11.279c0.773,2.48,3.029,3.918,4.606,4.813c1.576,0.895,1.21-0.252,2.125-2.693
		c0.85-2.268,3.419-4.982,3.842-6.293c0.422-1.309,1.702-6.613-0.612-10.176c-2.993-4.607-7.322-6.221-12.98-5.471
		c-8.29,1.102-12.875,7.816-14.197,16.074C1.494,71.561,8.72,81.994,22.677,83.129c4.593,0.375,9.454-1.381,11.482-2.777
		s9.663-4.459,15.328-18.367c5.428-13.326,7.976-19.668,9.733-24.074c3.01-7.545,9.06-24.836,9.518-26.133
		C69.865,8.588,72.114,4.895,72.555,4.143"/>
	<path d="M204.78,44.098c-1.616-0.035-2.53,0.166-3.544,0.527c0,0-3.749,0.111-9.327,5.557c-5.577,5.445-6.466,5.322-8.29,6.516
		c-1.735,1.135-4.73,2.424-4.73,2.424c-8.653,4.949-13.896,5.676-16.892,5.797c-2.997,0.119-5.11,0.619-5.936,1.322
		c-0.825,0.703-1.107,1.73-1.249,3.375c-0.141,1.645,1.071,3.873,2.736,5.682c1.41,1.533,2.569,2.41,5.647,3.189
		c3.665,0.928,7.842,1.268,9.835,0.777c1.995-0.492,7.741-3.818,9.021-12.539c0,0-0.094-3.258-0.548-5.273
		c-1-4.445-4.856-8.846-5.425-10.348c-0.568-1.502-1.274-2.609-1.63-4.191c-0.458-2.039,0.863-3.617-1.607-3.859
		c-1.711-0.17-4.431-0.998-5.492-0.662c-1.063,0.336-3.621,1.219-3.239,3.902c0.383,2.682,0.641,2.723,0.641,2.723
		s2.42,4.32,3.105,5.262c0.684,0.941,2.364,3.113,3.109,4.432c0.744,1.316,1.148,3.277,0.637,7.254
		c-0.511,3.977-1.899,6.734-4.835,7.221c-2.167,0.361-2.949-0.229-3.615-1.287c-0.666-1.057,1.127-1.361,2.241-1.32
		c3.908,0.143,5.7-0.645,5.7-0.645c9.542-2.301,14.559-5.563,14.559-5.563s-0.704,8.266,4.27,11.391
		c4.734,2.975,7.863,2.584,10.006,2.418c2.145-0.164,5.156-1.107,8.378-3.387c2.559-1.813,4.421-4.502,5.998-8.104
		c3.883-8.871,2.284-15.193-0.904-19.102c-2.108-2.584-5.219-3.479-7.982-3.539c-3.008-0.318-6.318,1.955-6.978,4.85
		c-0.773,3.387,1.046,7.781,9.222,8.393c2.887,0.219,9.056-2.572,9.056-2.572s4.074-2.148,6.466-2.83
		c2.372-0.674,0.823,1.596,0.664,2.143c-0.195,0.672-3.131,7.105-3.982,9.291c-0.85,2.186-3.04,6.793-3.697,7.752
		c-2.308,3.357-2.877,4.074-2.877,4.074s-1.54,0.967-0.017,2.016c1.692,1.164,5.886,1.365,7.164,1.568
		c1.28,0.201,4.482-0.83,5.271-2.621c0.788-1.791,3.626-8.574,4.969-11.24c1.775-3.521,3.779-7.5,6.531-10.887
		c1.031-1.268,3.604-3.396,5.106-4.162c0.693-0.354,2.746-0.775,1.558,2.264s-3.935,7.648-4.558,9.037
		c-0.624,1.387-2.896,7.457-1.133,10.965c1.765,3.506,7.404,4.707,11.275,4.91c2.494,0.133,7.488-0.059,12.202-0.789
		c8.881-1.373,14.323-3.525,21.86-7.287c4.063-2.027,9-5.602,9.731-6.393c0.73-0.793,3.036-3.252,3.373-4.104
		c0.337-0.855,0.583-3.201-0.291-5.166c-0.618-1.389-3.907-5.893-4.609-6.594c-0.472-0.473-1.893-2.105-2.229,0.303
		c-0.183,1.316-1.33,3.994-4.518,7.168c-6.115,6.08-10.277,9.27-18.163,12.938c-4.789,2.227-10.601,3.967-12.836,4.313
		c-1.747,0.271-4.464,0.094-5.398-1.641c-0.982-1.822-0.373-4.844,0.491-6.594c2.806-5.682,3.648-8.277,3.748-10.557
		c0.062-1.396,0.003-6.291-3.919-8.047c-3.488-1.559-6.959-1.668-9.837,0.346c-2.644,1.85-4.666,2.867-4.666,2.867
		s-0.835-2.221-3.248-2.904c-2.413-0.686-3.635-0.758-5.989,0.256s-7.448,4.039-9.323,5.055c-1.875,1.014-6.529,3.174-8.658,3.242
		c-2.128,0.066-5.118-0.635-5.68-2.816c-0.562-2.182,2.739-3.449,4.182-1.734l-0.064-0.043c2.023,1.842,2.182,7.262-0.356,14.238
		c-2.538,6.975-6.659,11.877-9.206,10.949c-2.546-0.926-2.552-7.332-0.014-14.307c1.028-2.822,2.313-5.305,3.649-7.199
		c0,0,2.536-5.121,5.492-6.852C207.173,44.48,204.78,44.098,204.78,44.098"/>
	<path d="M273.594,44.357c-0.806,0.811-1.209,1.791-1.209,2.939c0,1.158,0.401,2.145,1.204,2.961
		c0.806,0.814,1.786,1.221,2.939,1.221c1.153,0,2.134-0.406,2.94-1.221c0.807-0.816,1.21-1.803,1.21-2.961
		c0-1.148-0.403-2.129-1.21-2.939c-0.812-0.816-1.792-1.225-2.94-1.225C275.384,43.133,274.406,43.541,273.594,44.357
		 M279.949,50.723c-0.944,0.947-2.083,1.42-3.42,1.42c-1.338,0-2.475-0.473-3.414-1.42c-0.934-0.941-1.401-2.084-1.401-3.426
		c0-1.328,0.472-2.463,1.415-3.406c0.938-0.939,2.072-1.408,3.4-1.408c1.337,0,2.477,0.469,3.42,1.408
		c0.943,0.938,1.413,2.074,1.414,3.406C281.362,48.633,280.892,49.777,279.949,50.723 M277.436,45.469
		c-0.233-0.131-0.607-0.197-1.125-0.197h-0.796v1.92h0.842c0.395,0,0.691-0.039,0.888-0.119c0.364-0.145,0.545-0.42,0.546-0.828
		C277.791,45.859,277.672,45.6,277.436,45.469 M276.436,44.633c0.658,0,1.14,0.064,1.447,0.191c0.548,0.227,0.821,0.676,0.821,1.342
		c0,0.473-0.173,0.82-0.519,1.045c-0.184,0.119-0.441,0.203-0.77,0.256c0.416,0.066,0.721,0.24,0.915,0.52
		c0.192,0.281,0.289,0.557,0.289,0.822v0.389c0,0.123,0.004,0.254,0.014,0.395c0.009,0.141,0.023,0.232,0.045,0.275l0.033,0.066
		h-0.875c-0.005-0.016-0.009-0.035-0.013-0.053s-0.009-0.035-0.014-0.059l-0.019-0.172v-0.422c0-0.611-0.167-1.018-0.5-1.215
		c-0.197-0.113-0.543-0.172-1.04-0.172h-0.737v2.092h-0.934v-5.301H276.436z"/>
	<path fill="#FFFFFF" d="M70.1,5.291c-0.008-1.018-2.373-0.299-4.411,4.016c-2.037,4.313-5.061,13.459-6.359,17.383
		c-1.298,3.924-4.675,13.117-8.785,23.1c-3.968,9.635-5.735,14.293-10.102,20.703c-0.961,1.412-5.912,7.205-3.338,5.92
		c2.573-1.285,5.815-5.998,8.134-9.523c2.319-3.525,9.095-20.176,10.433-23.924c1.337-3.748,7.37-19.303,8.25-21.744
		c1.096-3.039,3.066-8.127,4.266-11.82C69.108,6.566,70.107,6.309,70.1,5.291"/>
	<path fill="#FFFFFF" d="M16.829,49.959c-1.487,1.047-3.862,4.119-5.229,7.363c-1.746,4.143-2.064,8.754-1.36,11.445
		c0.527,2.012,0.963,3.271,1.521,3.6c0.611,0.361,0.399-0.662,0.237-1.771s-0.53-5.148,0.847-9.566
		c1.376-4.42,2.37-6.514,4.574-9.34c1.417-1.818,2.526-2.172,2.704-2.883C19.827,48.26,18.13,49.045,16.829,49.959"/>
	<path fill="#FFFFFF" d="M28.834,56.092c-0.354,2.66-1.861,3.945-2.288,4.488c-0.425,0.545-1.438,2.51-1.512,4.088
		c-0.028,0.607,0.402,2.738,0.835,1.631c0.582-1.49,0.617-2.115,1.574-3.756c1.077-1.85,2.077-2.826,2.267-3.967
		c0.284-1.701-0.199-2.721-0.359-3.016C28.998,54.91,28.901,55.586,28.834,56.092"/>
	<path fill="#FFFFFF" d="M132.313,53.059c-1.158,2.322,0.211,1.41,1.151,0.529s1.848-2.283,1.848-2.283l16.312-32.932
		c0,0,0.692-1.615,1.406-2.646c0.631-0.912-0.569-0.768-1.192-0.771c-0.624-0.006-1.119,0.113-1.661,0.967
		c-0.541,0.85-3.94,7.973-4.214,8.701c-0.271,0.73-11.731,24.607-12.161,25.184C133.802,49.807,133.332,51.02,132.313,53.059"/>
	<path fill="#FFFFFF" d="M127.705,62.658c-0.323-0.852-2.016,3.34-2.016,3.34l-2.194,4.658c-0.939,1.926-2.041,4.521-2.104,5.332
		c-0.245,1.668-0.052,2.605,0.526,2.609c0.431,0.006,1.092-1.955,2.476-4.777c1.517-3.098,3.661-8.049,3.661-8.049
		S128.027,63.512,127.705,62.658"/>
	<path fill="#FFFFFF" d="M135.211,64.344c0,0-0.982-2.176,1.167-4.139c5.076-4.211,18.528-12.195,19.266-12.605
		c1.175-0.654,2.12-1.756,0.325-1.879c-1.607-0.109-17.739,10.908-19.496,11.887c0,0-2.949,1.223-2.558,3.801
		C134.309,63.986,135.211,64.344,135.211,64.344"/>
	<path fill="#FFFFFF" d="M186.477,60.59c-0.43-0.131-4.478,1.412-6.465,2.855s-1.549,1.535-1.702,2.5
		c-0.153,0.965-0.499,3.811-1.47,6.027c-1.997,4.559-5.587,6.24-5.121,6.203c3.644-0.283,7.687-3.824,8.968-12.547
		c0,0-0.014-0.449,0.525-0.91c3.417-1.537,4.92-2.473,4.92-2.473S187.274,60.834,186.477,60.59"/>
	<path fill="#FFFFFF" d="M177.164,58.801c0.841,0.49,1.276,0.768,1.587,0.189c0.472-0.881-2.833-3.734-4.985-9.605
		c-0.672-1.836-0.19-1.434-0.601-3.002c-0.424-1.615,0.396-1.893-0.724-1.902c-1.72-0.018-0.609,5.059,0.162,7.094
		C173.855,54.877,176.83,58.605,177.164,58.801"/>
	<path fill="#FFFFFF" d="M150.785,76.129c0.421,0.912,1.838,0.121,2.876-0.457c1.263-0.701,2.21-1.719,2.525-2.279
		c0,0-0.858-2.521-1.586-1.521C152.119,75.287,150.926,75.217,150.785,76.129"/>
	<path fill="#FFFFFF" d="M163.601,64.158c2.091-3.035,2.898-4.727,3.652-6.383c1.092-2.4,0.188-3.887-0.266-3.129
		c-0.452,0.76-0.731,1.867-1.278,3.025c-0.737,1.555-1.269,2.367-2.108,3.875c-0.938,1.686-2.487,2.449-2.112,3.072
		C161.833,65.191,163.379,64.482,163.601,64.158"/>
	<path fill="#FFFFFF" d="M168.956,69.078c1.286-1.188-0.616-0.846-1.895-0.807c-1.439,0.043-1.833,0.096-3.236,0.168
		c-2.961,0.146-3.237,0.928-3.564,1.697c-0.354,0.83-0.293,1.611,0.127,2.275c1.421,2.24,3.074,2.592,3.841,2.289
		c1.198-0.473-1.574-0.693-2.075-3.08c-0.495-1.729,1.596-1.965,3.083-1.947C168.114,69.711,168.956,69.078,168.956,69.078"/>
	<path fill="#FFFFFF" d="M213.816,50.461c-0.561-1.469-1.36-2.418-2.401-3.363c-1.375-1.248-0.677,0.273-0.128,1.146
		c0.282,0.451,0.392,0.811,0.63,1.334c0.272,0.598,0.369,1.627,0.672,1.547C213.04,51.004,213.816,50.461,213.816,50.461"/>
	<path fill="#FFFFFF" d="M215.178,55.902c-1.072,0.598-1.815,0.863-1.815,0.863c-0.229,1.563-0.429,3.031-0.984,4.848
		c-1.494,4.891-4.264,9.344-5.06,10.285c-1.123,1.438-2.585,2.828-0.974,2.186c2.388-1.393,4.813-4.695,6.594-8.492
		c1.596-3.4,2.269-6.582,2.297-9.352C215.236,56.24,215.332,55.816,215.178,55.902"/>
	<path fill="#FFFFFF" d="M197.181,51.566c-0.302,0.363-2.367,2.57-3.866,6.387c-1.166,2.969-1.349,5.549-1.279,8.072
		c0.041,1.479,0.533,3.541,1.066,2.209c-0.048-2.625,0.4-5.318,1.542-8.48c1.06-2.938,2.511-5.127,3.847-7.021
		c0,0-0.118-1.76-0.499-1.871C197.612,50.752,197.485,51.205,197.181,51.566"/>
	<path fill="#FFFFFF" d="M250.407,52.424c-0.632,2.736-1.054,2.658-2.878,6.307c-2.021,4.043-3.562,9.127-1.053,11.576
		c0.861,0.838,0.546-0.834,0.351-2.246c-0.281-2.035,0.479-4.348,1.285-6.125c2.673-5.887,3.277-6.426,3.274-9.309
		C251.386,52.627,250.924,50.184,250.407,52.424"/>
	<path fill="#FFFFFF" d="M238.338,49.75c-1.183,0.379-2.923,1.652-4.327,3.219c-3.53,3.938-7.388,11.865-11.107,19.723
		c-0.952,2.014-1.754,3.438-1.333,3.648c1.279,0.201,2.17-0.332,2.774-1.326c1.016-1.674,2.881-6.926,4.97-11.24
		c1.797-3.711,4.393-8.131,5.516-9.463c0.955-1.135,2.575-2.895,3.927-3.867C238.757,50.443,239.521,49.371,238.338,49.75"/>
	<path fill="#FFFFFF" d="M277.533,70.02c0.642-0.006,2.707-0.906,6.329-2.881c3.372-1.838,7.23-4.979,8.025-5.707
		c1.196-1.098,3.036-3.25,3.373-4.105c0.338-0.854-1.051-3.42-1.768-1.932c-1.118,1.41-2.518,3.559-4.467,5.531
		c-4.013,4.063-9.308,6.787-12.212,8.074C275.791,69.455,277.25,70.021,277.533,70.02"/>
	<path fill="#FFFFFF" d="M71.703,52.117c2.31-2.518-1.609-0.729-3.141,0.986c-2.28,2.549-2.977,2.967-5.03,7.184
		c-3.884,7.977-2.055,12.955-2.055,12.955s0.407,1.768,0.936,0.813c0,0-0.669-4.395,3.215-12.369
		C67.681,57.469,69.954,53.387,71.703,52.117"/>
	<path fill="#FFFFFF" d="M90.516,50.15c0.288-0.961,0.685-0.721-0.835-0.961c-1.519-0.24-1.542,0.842-1.542,0.842
		c-0.345,0.725-1.584,2.602-2.137,3.838c-0.554,1.236-3.426,7.27-4.523,10.197c-1.315,3.514-3.16,6.93-1.899,9.396
		c0,0,1.139,1.709,1.024,0.586c-0.182-1.779,0.924-5.438,2.36-8.902c1.199-2.891,4.635-9.766,5.231-10.98
		C88.79,52.949,90.145,50.863,90.516,50.15"/>
	<path fill="#FFFFFF" d="M88.454,74.48c-0.597,0.807-1.432,1.752-2.525,2.631c-1.438,1.158-2.175,2.385-1.172,2.213
		c1.664-0.318,4.695-3.377,4.695-3.377S89.015,75.498,88.454,74.48"/>
	<path fill="#FFFFFF" d="M105.536,52.838c1.333-1.543-1.589-0.365-2.399,0.42c-2.246,2.176-3.409,3.83-4.546,6.104
		c-1.052,2.105-2.195,4.789-2.385,8.209c-0.07,1.262,0.465,3.148,1.183,2.791c-0.2-1.598,1.146-6.07,2.816-9.598
		C101.799,57.398,103.766,54.887,105.536,52.838"/>
	<path fill="#FFFFFF" d="M113.382,54.08c-0.119,2.654-1.496,4.053-1.869,4.627c-0.373,0.572-1.201,2.598-1.138,4.16
		c0.024,0.602,0.633,2.664,0.964,1.537c0.446-1.52,0.427-2.139,1.229-3.842c0.903-1.916,1.805-2.967,1.894-4.109
		c0.133-1.701-0.431-2.666-0.614-2.941C113.441,52.902,113.405,53.574,113.382,54.08"/>
</g>
</svg>
