<?xml version="1.0" encoding="UTF-8" standalone="no"?>
<!-- Created with Inkscape (http://www.inkscape.org/) -->

<svg
   xmlns:dc="http://purl.org/dc/elements/1.1/"
   xmlns:cc="http://creativecommons.org/ns#"
   xmlns:rdf="http://www.w3.org/1999/02/22-rdf-syntax-ns#"
   xmlns:svg="http://www.w3.org/2000/svg"
   xmlns="http://www.w3.org/2000/svg"
   xmlns:sodipodi="http://sodipodi.sourceforge.net/DTD/sodipodi-0.dtd"
   xmlns:inkscape="http://www.inkscape.org/namespaces/inkscape"
   width="75.8218mm"
   height="59.577621mm"
   viewBox="0 0 268.65992 211.10181"
   id="svg2"
   version="1.1"
   inkscape:version="0.91 r13725"
   sodipodi:docname="ltd.svg">
  <defs
     id="defs4" />
  <sodipodi:namedview
     id="base"
     pagecolor="#ffffff"
     bordercolor="#666666"
     borderopacity="1.0"
     inkscape:pageopacity="0.0"
     inkscape:pageshadow="2"
     inkscape:zoom="1.19"
     inkscape:cx="298.91305"
     inkscape:cy="-72.749534"
     inkscape:document-units="px"
     inkscape:current-layer="layer1"
     showgrid="false"
     inkscape:window-width="1920"
     inkscape:window-height="1129"
     inkscape:window-x="-4"
     inkscape:window-y="-4"
     inkscape:window-maximized="1"
     fit-margin-top="0"
     fit-margin-left="0"
     fit-margin-right="0"
     fit-margin-bottom="0" />
  <metadata
     id="metadata7">
    <rdf:RDF>
      <cc:Work
         rdf:about="">
        <dc:format>image/svg+xml</dc:format>
        <dc:type
           rdf:resource="http://purl.org/dc/dcmitype/StillImage" />
        <dc:title></dc:title>
      </cc:Work>
    </rdf:RDF>
  </metadata>
  <g
     inkscape:label="Ebene 1"
     inkscape:groupmode="layer"
     id="layer1"
     transform="translate(-130.90133,-89.045979)">
    <path
       style="fill:#000000;fill-rule:evenodd;stroke:none;stroke-width:1px;stroke-linecap:butt;stroke-linejoin:miter;stroke-opacity:1"
       d="m 219.32426,89.045979 c -24.44781,6.44859 -42.33603,12.897121 -61.70713,19.345701 -13.50549,63.53029 -19.86307,113.85817 -26.65609,164.95861 -1.27367,34.9125 18.18027,26.05812 24.72447,25.11078 27.23186,-5.47652 50.40761,-18.54549 71.69205,-28.95917 4.71501,2.05127 18.23133,13.41725 18.23133,13.41725 7.18053,5.60461 25.11764,3.01452 29.44945,-0.68352 11.73338,-8.22596 17.81197,-19.23772 28.94425,-28.06764 11.37168,12.99742 24.4332,22.9466 32.86693,21.5002 8.58849,0.16109 17.95764,-5.7863 26.65609,-11.20328 19.52887,-17.4398 30.43587,-38.79866 35.15506,-62.97011 2.21913,-17.68961 0.0579,-34.01456 -4.39806,-49.70157 -8.2052,-24.19389 -20.59044,-38.58039 -32.03485,-54.352221 5.3,18.407791 7.9709,37.776181 8.9894,58.200581 2.28163,36.82739 -3.89451,60.67825 -15.8243,81.78092 -13.04132,16.03938 -18.37859,14.30002 -22.79284,10.43066 -7.94871,-5.42756 -6.96037,-13.64791 -4.24953,-22.40656 7.01845,-18.61583 18.42106,-30.148 33.22349,-46.3584 -13.76478,-1.39613 -29.90959,5.24117 -42.49515,16.22546 -14.28916,13.60961 -17.97345,20.04752 -19.85928,27.74257 -1.66129,5.38073 -1.18665,12.71748 0.37981,17.84318 -9.21641,7.95661 -17.60981,16.86659 -25.37825,21.58933 -6.07623,3.17183 -12.61139,7.89242 -13.47658,-6.5229 2.61574,-24.59568 4.02177,-49.19137 10.43059,-73.78705 9.78532,-0.037 13.50278,-1.37447 31.67825,0.38628 -0.79867,-3.52797 0.37124,-9.68076 1.54531,-15.83909 -12.26461,4.01917 -24.85247,7.21617 -31.78224,6.56741 5.20016,-18.14952 8.37935,-37.41012 10.01457,-52.12344 -17.86179,12.46143 -29.97313,16.62484 -41.97517,21.99053 1.38187,12.69406 1.48798,24.96288 -1.15893,36.31403 -7.38666,1.35764 -16.28322,4.98009 -21.2476,2.70428 -1.20335,10.37746 -2.16556,15.36988 -4.01177,21.24756 10.78114,-5.54623 20.00927,-9.85008 24.10043,-10.04431 -0.70894,16.29053 -7.26859,38.68435 -11.70847,58.70579 -14.95147,5.63745 -33.33954,13.25802 -45.94235,14.01149 -6.16659,-1.15052 -15.80487,-0.48574 -17.68155,-12.45138 1.02276,-16.46352 6.04345,-81.16244 23.5655,-116.66858 7.3712,-17.47321 20.33798,-31.71619 32.73316,-47.933391 z"
       id="path3347"
       inkscape:connector-curvature="0"
       sodipodi:nodetypes="cccccccccccccccccccccccccccccccccccccc" />
  </g>
</svg>
