<?xml version="1.0" encoding="UTF-8" standalone="no"?>
<!DOCTYPE svg PUBLIC "-//W3C//DTD SVG 1.1//EN" "http://www.w3.org/Graphics/SVG/1.1/DTD/svg11.dtd">
<svg xmlns="http://www.w3.org/2000/svg" version="1.1" viewBox="0.00 0.00 665.00 215.00">
<path fill="#000000" d="
  M 288.56 0.00
  L 297.03 0.00
  Q 300.54 0.35 303.98 0.75
  C 324.18 3.09 340.66 17.28 325.61 38.25
  Q 317.69 49.28 305.81 58.04
  Q 293.07 67.44 275.05 79.89
  A 2.55 2.55 0.0 0 0 274.28 83.23
  L 292.16 115.26
  A 1.27 1.27 0.0 0 0 293.97 115.70
  Q 294.39 115.42 294.70 115.03
  Q 312.03 93.71 328.54 72.93
  Q 329.70 71.46 331.33 71.03
  C 338.13 69.20 338.79 77.11 337.82 81.74
  C 336.12 89.91 333.65 97.87 333.37 106.15
  A 0.37 0.37 0.0 0 0 333.96 106.46
  Q 334.93 105.74 335.75 104.86
  Q 350.23 89.42 365.95 77.93
  Q 373.45 72.45 383.90 69.79
  C 388.48 68.62 399.62 65.90 399.97 73.86
  Q 400.17 78.46 395.55 79.10
  C 378.97 81.41 365.08 89.02 357.59 104.75
  C 355.40 109.35 356.74 115.88 363.30 115.01
  Q 366.76 114.55 370.17 113.04
  C 387.99 105.14 402.91 93.43 414.81 78.08
  C 428.30 60.66 438.87 41.30 448.91 21.45
  Q 450.39 18.52 452.89 17.17
  C 455.57 15.72 458.82 17.49 458.68 20.74
  Q 458.56 23.88 457.24 26.58
  Q 449.56 42.34 436.69 67.91
  Q 435.29 70.69 434.75 73.77
  A 0.54 0.54 0.0 0 0 435.48 74.37
  Q 435.90 74.21 436.25 73.93
  Q 444.69 67.16 454.55 59.76
  C 456.44 58.34 461.11 56.29 461.74 60.16
  Q 462.16 62.78 461.61 66.28
  Q 459.23 81.37 454.90 95.38
  Q 454.40 97.01 454.31 98.71
  A 0.56 0.56 0.0 0 0 455.12 99.24
  Q 495.00 79.74 537.82 71.46
  Q 560.86 67.00 583.31 67.03
  C 609.92 67.06 637.39 71.49 660.02 84.92
  Q 663.55 87.02 665.00 91.10
  L 665.00 92.71
  C 662.80 97.73 658.95 97.14 654.87 94.90
  C 623.91 77.97 588.90 75.39 553.74 79.28
  C 522.19 82.78 492.29 91.43 465.18 106.11
  Q 456.06 111.06 447.33 116.33
  C 445.40 117.50 442.20 119.47 440.67 116.49
  C 439.59 114.38 439.89 111.53 440.49 109.31
  C 442.86 100.60 444.82 92.78 443.07 84.50
  C 442.81 83.27 441.70 81.99 440.35 82.85
  Q 429.64 89.64 423.77 96.71
  C 419.52 101.82 416.79 108.35 413.77 114.28
  C 412.31 117.15 409.73 121.57 406.24 121.92
  C 395.97 122.97 404.10 107.69 405.70 104.18
  Q 406.14 103.22 405.12 103.52
  Q 404.51 103.70 404.02 104.09
  Q 391.98 113.87 380.50 120.57
  C 374.01 124.35 364.43 128.83 356.84 127.11
  C 349.49 125.43 346.94 119.57 345.62 112.55
  Q 345.35 111.11 344.04 111.75
  Q 342.42 112.53 341.28 114.07
  Q 335.61 121.72 330.05 128.70
  Q 325.64 134.23 320.06 135.48
  C 313.36 136.97 315.96 125.80 316.79 122.25
  Q 319.65 110.02 323.19 97.75
  A 0.98 0.98 0.0 0 0 321.85 96.58
  Q 320.44 97.21 319.43 98.72
  Q 308.73 114.68 296.45 130.45
  C 295.05 132.24 290.34 137.72 288.11 133.51
  C 282.01 122.00 276.27 108.57 269.07 98.38
  Q 264.08 91.32 259.64 84.11
  Q 257.36 80.41 260.03 76.94
  C 262.24 74.08 265.03 71.87 268.24 70.23
  Q 286.94 60.60 302.73 48.74
  C 308.19 44.64 313.40 39.96 317.55 34.50
  C 322.33 28.20 324.15 20.05 315.44 15.73
  C 308.16 12.11 297.76 11.39 289.90 12.07
  Q 266.50 14.09 245.80 22.15
  C 239.31 24.68 233.42 28.32 227.18 31.35
  A 1.84 1.83 58.5 0 1 224.92 30.80
  C 220.47 24.89 227.02 19.57 231.79 17.10
  Q 258.64 3.20 288.56 0.00
  Z"
/>
<path fill="#000000" d="
  M 220.62 135.21
  Q 195.84 148.60 171.58 156.27
  Q 155.27 161.42 142.88 161.24
  C 122.23 160.94 115.00 137.48 116.29 120.90
  Q 116.96 112.28 119.14 104.27
  Q 129.63 65.62 155.22 34.28
  C 163.94 23.60 182.46 5.69 197.62 12.72
  C 208.33 17.70 208.49 34.45 206.22 44.61
  Q 205.06 49.81 200.74 50.78
  C 195.86 51.88 195.11 46.96 195.94 43.68
  Q 197.83 36.16 197.99 29.78
  C 198.14 23.11 193.75 17.91 186.77 20.55
  C 179.72 23.22 173.42 30.23 168.67 35.92
  Q 155.08 52.21 146.57 68.15
  Q 135.50 88.88 129.05 110.97
  C 126.75 118.84 124.29 129.33 126.34 137.22
  C 130.35 152.63 145.61 153.09 158.51 149.70
  C 181.48 143.67 203.58 132.98 225.23 121.89
  Q 225.78 121.60 226.00 121.02
  Q 241.58 79.49 257.12 38.06
  C 258.28 34.97 261.80 27.30 266.19 28.94
  C 270.99 30.73 267.59 40.27 266.31 43.76
  Q 253.29 79.19 241.36 113.87
  A 0.20 0.20 0.0 0 0 241.64 114.11
  Q 248.12 111.16 254.88 107.89
  C 258.59 106.10 261.96 107.54 262.15 111.82
  Q 262.34 116.03 257.78 118.11
  Q 246.84 123.07 236.67 127.92
  Q 236.18 128.15 235.98 128.66
  Q 228.73 147.64 221.10 166.70
  C 218.90 172.18 214.53 173.50 209.22 173.51
  A 2.04 2.03 84.6 0 1 207.21 171.84
  Q 206.92 170.21 207.48 168.68
  Q 213.50 152.25 221.15 135.71
  Q 221.63 134.67 220.62 135.21
  Z"
/>
<path fill="#000000" d="
  M 93.39 76.09
  C 101.38 77.84 108.34 82.89 107.14 92.10
  C 105.60 103.99 100.74 112.61 93.77 122.25
  C 76.49 146.11 60.62 168.19 41.32 188.81
  Q 37.10 193.32 33.13 196.65
  Q 30.84 198.57 27.97 197.76
  C 24.99 196.91 23.65 194.29 25.78 191.73
  Q 40.21 174.42 53.04 159.14
  Q 71.82 136.75 86.20 113.78
  Q 88.35 110.34 90.52 106.05
  C 92.72 101.71 95.14 96.66 94.68 91.76
  C 94.30 87.78 90.99 85.84 87.19 85.97
  C 80.17 86.22 75.00 89.52 70.25 94.33
  C 68.09 96.52 63.06 98.97 61.06 95.12
  C 58.65 90.46 65.28 85.12 68.59 82.18
  Q 83.35 69.08 98.57 55.57
  Q 105.23 49.66 107.65 42.67
  Q 109.21 38.18 105.22 35.80
  C 100.07 32.72 93.24 32.96 87.35 33.51
  Q 69.83 35.14 53.06 41.67
  Q 40.64 46.52 34.10 48.68
  C 31.98 49.38 28.39 50.11 27.86 46.91
  C 26.73 40.21 31.64 37.40 37.04 35.58
  Q 54.50 29.68 70.61 25.60
  Q 83.63 22.31 94.77 21.33
  C 101.55 20.73 110.44 22.06 115.69 27.00
  C 130.29 40.75 103.12 67.09 93.20 75.31
  Q 92.49 75.90 93.39 76.09
  Z"
/>
<ellipse fill="#000000" cx="0.00" cy="0.00" transform="translate(344.19,49.86) rotate(-42.9)" rx="9.78" ry="7.82"/>
<path fill="#000000" d="
  M 3.41 215.00
  L 1.42 215.00
  Q 0.46 214.40 0.00 213.16
  L 0.00 210.17
  Q 0.76 205.93 1.27 204.24
  Q 13.10 164.95 25.12 126.22
  Q 28.22 116.23 31.45 107.50
  Q 43.20 75.76 56.26 48.56
  Q 57.58 45.83 60.33 45.38
  Q 60.79 45.31 61.23 45.46
  Q 64.25 46.54 63.33 49.16
  C 56.39 69.06 49.56 87.82 43.15 107.25
  Q 20.30 176.46 8.09 211.53
  Q 7.10 214.35 3.41 215.00
  Z"
/>
<path fill="#000000" d="
  M 621.95 95.47
  A 9.22 9.08 0.0 0 1 612.73 104.55
  A 9.22 9.08 0.0 0 1 603.51 95.47
  A 9.22 9.08 0.0 0 1 612.73 86.39
  A 9.22 9.08 0.0 0 1 621.95 95.47
  Z
  M 612.9652 103.0667
  A 7.59 7.40 88.3 0 0 620.1367 95.2605
  A 7.59 7.40 88.3 0 0 612.5148 87.8933
  A 7.59 7.40 88.3 0 0 605.3433 95.6995
  A 7.59 7.40 88.3 0 0 612.9652 103.0667
  Z"
/>
<path fill="#000000" d="
  M 610.82 96.85
  L 610.81 100.24
  Q 610.80 100.78 610.26 100.78
  L 609.77 100.78
  A 0.52 0.51 0.0 0 1 609.25 100.27
  L 609.24 90.80
  Q 609.24 90.25 609.79 90.22
  Q 612.85 90.04 615.24 90.54
  A 1.84 1.81 84.5 0 1 616.54 91.63
  Q 617.85 94.82 614.78 96.01
  Q 614.16 96.25 614.58 96.77
  Q 615.96 98.46 616.79 100.41
  Q 617.03 100.95 616.44 100.91
  L 615.91 100.88
  A 0.71 0.69 -13.8 0 1 615.35 100.55
  L 612.93 96.65
  Q 612.57 96.06 611.88 96.14
  L 611.40 96.20
  Q 610.82 96.28 610.82 96.85
  Z
  M 610.80 92.02
  L 610.78 94.34
  A 0.45 0.45 0.0 0 0 611.23 94.79
  L 613.29 94.80
  A 1.95 1.43 0.3 0 0 615.25 93.38
  L 615.25 93.02
  A 1.95 1.43 0.3 0 0 613.31 91.58
  L 611.25 91.57
  A 0.45 0.45 0.0 0 0 610.80 92.02
  Z"
/>
<ellipse fill="#000000" cx="0.00" cy="0.00" transform="translate(145.10,125.41) rotate(109.6)" rx="14.22" ry="6.67"/>
<ellipse fill="#000000" cx="0.00" cy="0.00" transform="translate(94.59,144.09) rotate(109.6)" rx="14.24" ry="6.66"/>
<path fill="#000000" d="
  M 346.20 182.25
  L 338.51 182.26
  Q 338.26 182.26 338.26 182.01
  L 338.26 175.23
  Q 338.26 174.96 338.52 174.96
  L 355.79 174.96
  Q 356.38 174.96 356.38 175.54
  L 356.38 196.50
  Q 356.38 197.08 355.83 197.22
  Q 346.74 199.60 336.35 199.32
  C 320.55 198.90 314.04 186.28 315.87 171.95
  C 317.41 159.85 325.99 153.05 337.87 153.39
  C 347.36 153.67 356.81 156.26 357.02 167.46
  A 0.28 0.28 0.0 0 1 356.74 167.74
  L 347.26 167.74
  Q 346.97 167.74 346.95 167.45
  Q 346.65 160.59 339.12 160.26
  Q 328.57 159.80 326.32 170.34
  Q 324.73 177.75 326.88 184.43
  C 329.83 193.62 338.68 193.37 346.50 191.59
  A 0.51 0.51 0.0 0 0 346.90 191.09
  L 346.90 182.95
  Q 346.90 182.25 346.20 182.25
  Z"
/>
<path fill="#000000" d="
  M 556.40 184.97
  C 555.87 192.98 565.51 194.12 570.23 190.89
  C 574.74 187.81 572.39 182.44 567.60 181.34
  C 559.72 179.53 545.96 177.06 548.09 165.48
  C 550.04 154.92 562.69 151.81 571.52 154.10
  Q 580.85 156.53 581.53 166.56
  A 0.28 0.28 0.0 0 1 581.25 166.86
  L 572.71 166.86
  Q 572.38 166.86 572.33 166.53
  Q 571.35 159.37 563.47 160.36
  C 556.77 161.20 555.80 169.60 562.64 171.29
  C 570.85 173.31 584.46 175.08 582.50 187.19
  C 580.66 198.53 567.36 200.44 558.20 198.87
  C 550.63 197.57 546.69 192.71 546.71 185.11
  Q 546.71 184.31 547.51 184.31
  L 555.78 184.31
  Q 556.44 184.31 556.40 184.97
  Z"
/>
<path fill="#000000" d="
  M 377.75 190.20
  C 381.11 193.58 389.68 193.41 392.33 189.27
  Q 394.15 186.41 394.21 182.55
  Q 394.42 169.32 394.28 154.73
  A 0.47 0.46 -90.0 0 1 394.74 154.26
  L 403.30 154.25
  Q 403.84 154.25 403.83 154.79
  Q 403.71 167.06 403.87 179.59
  C 403.99 189.10 400.72 196.17 391.13 198.56
  C 382.25 200.78 371.14 198.71 367.04 189.69
  Q 365.34 185.95 365.43 179.63
  Q 365.61 168.46 365.47 154.77
  Q 365.46 154.26 365.96 154.26
  L 374.53 154.25
  Q 374.99 154.25 374.99 154.71
  Q 375.00 167.44 375.00 180.58
  C 375.00 183.68 375.47 187.90 377.75 190.20
  Z"
/>
<rect fill="#000000" x="412.26" y="154.26" width="9.50" height="44.22" rx="0.40"/>
<path fill="#000000" d="
  M 448.96 162.02
  L 448.96 198.03
  A 0.45 0.45 0.0 0 1 448.51 198.48
  L 439.92 198.49
  A 0.45 0.45 0.0 0 1 439.47 198.04
  L 439.47 162.03
  A 0.45 0.45 0.0 0 0 439.02 161.58
  L 426.73 161.59
  A 0.45 0.45 0.0 0 1 426.28 161.14
  L 426.27 154.71
  A 0.45 0.45 0.0 0 1 426.72 154.26
  L 461.64 154.25
  A 0.45 0.45 0.0 0 1 462.09 154.70
  L 462.10 161.14
  A 0.45 0.45 0.0 0 1 461.65 161.59
  L 449.41 161.57
  A 0.45 0.45 0.0 0 0 448.96 162.02
  Z"
/>
<path fill="#000000" d="
  M 472.60 189.41
  L 469.47 198.20
  A 0.40 0.40 0.0 0 1 469.10 198.47
  L 460.89 198.49
  A 0.40 0.40 0.0 0 1 460.51 197.95
  L 476.22 154.52
  A 0.40 0.40 0.0 0 1 476.60 154.26
  L 487.28 154.26
  A 0.40 0.40 0.0 0 1 487.65 154.53
  L 502.76 197.96
  A 0.40 0.40 0.0 0 1 502.39 198.49
  L 493.68 198.48
  A 0.40 0.40 0.0 0 1 493.30 198.21
  L 490.30 189.42
  A 0.40 0.40 0.0 0 0 489.92 189.15
  L 472.97 189.14
  A 0.40 0.40 0.0 0 0 472.60 189.41
  Z
  M 475.31 181.29
  A 0.31 0.31 0.0 0 0 475.61 181.70
  L 487.41 181.78
  A 0.31 0.31 0.0 0 0 487.70 181.38
  L 481.93 163.61
  A 0.31 0.31 0.0 0 0 481.34 163.60
  L 475.31 181.29
  Z"
/>
<path fill="#000000" d="
  M 533.38 176.83
  C 538.69 177.61 539.89 181.67 540.26 186.23
  Q 540.79 192.74 542.62 198.08
  Q 542.76 198.49 542.33 198.49
  L 532.95 198.48
  Q 532.60 198.48 532.54 198.14
  Q 531.44 192.28 530.88 186.12
  C 530.66 183.74 529.64 180.64 526.77 180.67
  Q 521.96 180.73 517.34 180.66
  Q 516.90 180.66 516.90 181.10
  L 516.91 198.18
  Q 516.91 198.48 516.62 198.48
  L 507.70 198.48
  Q 507.42 198.48 507.42 198.20
  L 507.42 154.61
  A 0.33 0.33 0.0 0 1 507.75 154.28
  Q 517.27 154.21 526.83 154.30
  C 534.68 154.37 542.75 157.92 541.41 167.42
  Q 540.49 173.96 533.33 176.29
  Q 532.21 176.65 533.38 176.83
  Z
  M 516.89 161.85
  L 516.91 173.03
  A 0.27 0.27 0.0 0 0 517.18 173.30
  L 525.56 173.29
  A 5.91 5.56 -0.1 0 0 531.46 167.72
  L 531.46 167.12
  A 5.91 5.56 -0.1 0 0 525.54 161.57
  L 517.16 161.58
  A 0.27 0.27 0.0 0 0 516.89 161.85
  Z"
/>
</svg>
