<?xml version="1.0" encoding="UTF-8" standalone="no"?>
<!-- Created with Inkscape (http://www.inkscape.org/) -->

<svg
   xmlns:dc="http://purl.org/dc/elements/1.1/"
   xmlns:cc="http://creativecommons.org/ns#"
   xmlns:rdf="http://www.w3.org/1999/02/22-rdf-syntax-ns#"
   xmlns:svg="http://www.w3.org/2000/svg"
   xmlns="http://www.w3.org/2000/svg"
   version="1.1"
   width="142.43102"
   height="60.917255"
   id="svg11836">
  <defs
     id="defs11838">
    <clipPath
       id="clipPath17566">
      <path
         d="m 0,0 342,0 0,257.029 -342,0 L 0,0 z"
         id="path17568" />
    </clipPath>
    <clipPath
       id="clipPath17462">
      <path
         d="m 192.895,179.507 c 0.044,-0.558 0.084,-1.151 0.279,-1.718 l 0,0 c 0.124,-0.264 0.249,-0.526 0.399,-0.782 l 0,0 c 0.049,-0.067 0.098,-0.134 0.153,-0.2 l 0,0 c 0.049,-0.059 0.08,-0.132 0.119,-0.2 l 0,0 c 2.74,-4.156 8.838,-7.012 15.499,-6.812 l 0,0 c 4.552,0.137 8.419,1.678 10.899,4.004 l 0,0 c 1.234,1.736 2.016,3.816 2.273,6.148 l 0,0 0.682,5.205 c -1.307,-4.481 -6.643,-7.863 -13.505,-8.071 l 0,0 c -8.47,-0.254 -16.055,4.424 -16.942,10.448 l 0,0 c -0.065,0.438 -0.086,0.87 -0.076,1.295 l 0,0 c -0.082,-1.285 -0.166,-4.226 0.22,-9.317"
         id="path17464" />
    </clipPath>
    <clipPath
       id="clipPath17406">
      <path
         d="m 0,0 342,0 0,257.029 -342,0 L 0,0 z"
         id="path17408" />
    </clipPath>
    <clipPath
       id="clipPath17302">
      <path
         d="m 160.684,208.385 c 0.063,-0.506 0.126,-1.045 0.331,-1.551 l 0,0 c 0.127,-0.231 0.255,-0.464 0.404,-0.687 l 0,0 c 0.048,-0.059 0.096,-0.118 0.149,-0.176 l 0,0 c 0.049,-0.05 0.079,-0.115 0.12,-0.173 l 0,0 c 2.709,-3.628 8.465,-5.874 14.609,-5.299 l 0,0 c 4.197,0.394 7.703,2.026 9.891,4.292 l 0,0 c 1.068,1.656 1.699,3.6 1.835,5.741 l 0,0 0.405,4.784 c -1.016,-4.162 -5.796,-7.558 -12.125,-8.153 l 0,0 c -7.813,-0.732 -15.021,3.087 -16.1,8.526 l 0,0 c -0.081,0.396 -0.118,0.788 -0.128,1.176 l 0,0 c -0.019,-1.176 0.031,-3.862 0.609,-8.48"
         id="path17304" />
    </clipPath>
    <clipPath
       id="clipPath17246">
      <path
         d="m 0,0 342,0 0,257.029 -342,0 L 0,0 z"
         id="path17248" />
    </clipPath>
    <clipPath
       id="clipPath17142">
      <path
         d="m 231.064,142.662 c -0.041,-0.629 -0.092,-1.299 0.025,-1.957 l 0,0 c 0.091,-0.311 0.186,-0.622 0.306,-0.928 l 0,0 c 0.04,-0.082 0.079,-0.164 0.128,-0.246 l 0,0 c 0.043,-0.072 0.065,-0.158 0.096,-0.238 l 0,0 c 2.257,-5.019 8.289,-9.053 15.4,-9.752 l 0,0 c 4.859,-0.475 9.212,0.711 12.212,2.965 l 0,0 c 1.586,1.768 2.746,3.983 3.384,6.55 l 0,0 1.544,5.717 c -2.094,-4.822 -8.298,-7.861 -15.622,-7.142 l 0,0 c -9.043,0.886 -16.369,7.158 -16.364,14.008 l 0,0 c 0.001,0.498 0.045,0.98 0.121,1.455 l 0,0 c -0.289,-1.421 -0.839,-4.696 -1.23,-10.432"
         id="path17144" />
    </clipPath>
    <clipPath
       id="clipPath14574">
      <path
         d="m 0,0 342,0 0,257.029 -342,0 L 0,0 z"
         id="path14576" />
    </clipPath>
    <clipPath
       id="clipPath14448">
      <path
         d="M 0,558 342,558 342,0 0,0 0,558 z"
         id="path14450" />
    </clipPath>
    <clipPath
       id="clipPath11864">
      <path
         d="m 1.215,293.166 180.575,0 0,264.834 -180.575,0 0,-264.834 z"
         id="path11866" />
    </clipPath>
  </defs>
  <metadata
     id="metadata11841">
    <rdf:RDF>
      <cc:Work
         rdf:about="">
        <dc:format>image/svg+xml</dc:format>
        <dc:type
           rdf:resource="http://purl.org/dc/dcmitype/StillImage" />
        <dc:title></dc:title>
      </cc:Work>
    </rdf:RDF>
  </metadata>
  <g
     transform="translate(-243.95209,-444.0963)"
     id="layer1">
    <g
       transform="matrix(1.25,0,0,-1.25,136.25,881.11218)"
       id="g11852">
      <g
         transform="translate(183.46427,304.0833)"
         id="g14452"
         style="fill:#000000">
        <path
           d="m 0,0 0.507,0 c 0.251,0 0.431,0.033 0.54,0.095 0.106,0.072 0.157,0.176 0.157,0.328 0,0.135 -0.049,0.236 -0.157,0.308 C 0.943,0.798 0.779,0.835 0.571,0.835 L 0,0.835 0,0 z m -0.614,-1.742 0,3.056 1.445,0 c 0.36,0 0.621,-0.079 0.785,-0.249 C 1.777,0.899 1.861,0.694 1.861,0.453 1.861,0.216 1.793,0.028 1.655,-0.116 1.518,-0.257 1.313,-0.355 1.036,-0.402 1.162,-0.449 1.26,-0.516 1.333,-0.6 1.407,-0.68 1.525,-0.858 1.686,-1.128 l 0.356,-0.614 -0.767,0 -0.25,0.49 C 0.871,-0.956 0.732,-0.755 0.616,-0.647 0.501,-0.54 0.352,-0.485 0.157,-0.485 l -0.157,0 0,-1.257 -0.614,0 z m 1.338,3.853 c -0.703,0 -1.281,-0.229 -1.72,-0.702 -0.437,-0.461 -0.656,-1.003 -0.656,-1.615 0,-0.636 0.223,-1.185 0.679,-1.636 0.457,-0.45 0.999,-0.678 1.636,-0.678 0.634,0 1.179,0.228 1.635,0.678 0.451,0.451 0.681,1 0.681,1.636 0,0.439 -0.114,0.84 -0.344,1.207 C 2.408,1.373 2.112,1.653 1.754,1.838 1.398,2.019 1.05,2.111 0.724,2.111 M 0.579,2.675 c 0.859,0 1.565,-0.285 2.119,-0.856 0.556,-0.57 0.833,-1.248 0.833,-2.025 0,-0.788 -0.282,-1.467 -0.843,-2.031 -0.566,-0.567 -1.245,-0.852 -2.033,-0.852 -0.801,0 -1.476,0.285 -2.039,0.85 -0.563,0.56 -0.839,1.24 -0.839,2.033 0,0.561 0.147,1.074 0.445,1.539 0.294,0.467 0.666,0.809 1.111,1.021 0.447,0.217 0.859,0.321 1.246,0.321"
           id="path14454"
           style="fill:#000000;fill-opacity:1;fill-rule:nonzero;stroke:none" />
      </g>
      <g
         transform="translate(103.73087,349.5618)"
         id="g14456"
         style="fill:#000000">
        <path
           d="m 0,0 16.854,-0.001 0,-20.066 L 0,0 z"
           id="path14458"
           style="fill:#000000;fill-opacity:1;fill-rule:nonzero;stroke:none" />
      </g>
      <g
         transform="translate(114.99157,336.1702)"
         id="g14460"
         style="fill:#000000">
        <path
           d="m 0,0 0.009,-20.395 -6.398,4.604 -4.317,-0.004 -0.013,10.83 4.323,0 L 0,0 z"
           id="path14462"
           style="fill:#000000;fill-opacity:1;fill-rule:nonzero;stroke:none" />
      </g>
      <g
         transform="translate(120.58436,322.9231)"
         id="g14464"
         style="fill:#000000">
        <path
           d="M 0,0 0,0 0,-22.015 -16.816,-22.028 0,0 z"
           id="path14466"
           style="fill:#000000;fill-opacity:1;fill-rule:nonzero;stroke:none" />
      </g>
      <g
         transform="translate(124.11467,325.6878)"
         id="g14468"
         style="fill:#000000">
        <path
           d="M 0,0 0,-24.779 18.795,-24.765 0,0 z"
           id="path14470"
           style="fill:#000000;fill-opacity:1;fill-rule:nonzero;stroke:none" />
      </g>
      <g
         transform="translate(137.91636,349.5794)"
         id="g14472"
         style="fill:#000000">
        <path
           d="M 0,0 18.379,0.01 18.396,-23.402 0,0 z"
           id="path14474"
           style="fill:#000000;fill-opacity:1;fill-rule:nonzero;stroke:none" />
      </g>
      <g
         transform="translate(159.80707,349.5965)"
         id="g14476"
         style="fill:#000000">
        <path
           d="M 0,0 0.037,-48.662 18.242,-48.647 18.211,0.012 0,0 z"
           id="path14478"
           style="fill:#000000;fill-opacity:1;fill-rule:nonzero;stroke:none" />
      </g>
      <g
         transform="translate(180.66347,349.6087)"
         id="g14480"
         style="fill:#000000">
        <path
           d="m 0,0 0.021,-28.478 c 0,0 0.533,-0.009 5.606,-0.002 9.024,0.002 13.825,6.393 13.816,14.193 C 19.436,-6.479 14.824,0.01 5.611,0.004 0.659,-0.003 0,0 0,0"
           id="path14482"
           style="fill:#000000;fill-opacity:1;fill-rule:nonzero;stroke:none" />
      </g>
      <g
         transform="translate(143.94277,300.9231)"
         id="g14484"
         style="fill:#000000">
        <path
           d="m 0,0 3.056,0.003 c 11.288,0.009 13.008,12.749 9.786,17.471 -2.053,2.984 -18.467,24.207 -20.306,26.709 -1.909,2.597 0.517,4.473 0.517,4.473 L -9.942,48.648 C -21.237,48.642 -22.956,35.823 -19.728,31.104 -17.682,28.116 -1.471,6.736 0.574,4.387 2.878,1.745 0,0 0,0"
           id="path14486"
           style="fill:#000000;fill-opacity:1;fill-rule:nonzero;stroke:none" />
      </g>
      <g
         transform="translate(103.11467,300.8929)"
         id="g14488"
         style="fill:#000000">
        <path
           d="M 0,0 0,48.658 -16.953,48.642 -16.921,-0.014 0,0 z"
           id="path14490"
           style="fill:#000000;fill-opacity:1;fill-rule:nonzero;stroke:none" />
      </g>
    </g>
  </g>
</svg>
